<svg id="gradientSvgCardExport-noID" xmlns="http://www.w3.org/2000/svg" width="1080" height="1080"><defs><linearGradient id="linear-gradient" x1="0" y1="0" x2="0.47652277333510634" y2="1.2067169304807441" gradientUnits="objectBoundingBox"><stop offset="0.5" stop-color="#FCA311"/><stop offset="1" stop-color="#000000"/></linearGradient><clipPath id="clip-Dopely_Colors_-_Exported_Image_Gradients"><rect width="1080" height="1080"/></clipPath><clipPath id="round-corner"><rect x="0" y="0" width="490" height="476" rx="25" ry="25"/></clipPath><clipPath id="round-corner-bottom"><rect x="0" y="-30" width="490" height="476" rx="25" ry="25"/></clipPath></defs><rect width="1080" height="1080" fill="#fff"/><rect id="Rectangle_3567" data-name="Rectangle 3567" width="450" height="892" rx="30" transform="translate(50 50)" fill="url(#linear-gradient)"/><rect id="123" data-name="123" width="490" height="446" fill="#FCA311" transform="translate(540 , 50)" clip-path="url(#round-corner)"/><text id="Marigold_Yellow-3" data-name="Marigold Yellow" transform="translate(580 111)" fill="#000" font-size="20" font-family="Poppins-Bold, Poppins" font-weight="700"><tspan x="0" y="0">Sun</tspan></text><text id="_1F2F98-3" data-name="#1F2F98" transform="translate(580 178)" fill="#000" font-size="16" font-family="Poppins-Bold, Poppins" font-weight="700"><tspan x="0" y="0">#FCA311</tspan></text><text id="hex-3" data-name="hex" transform="translate(580 155)" fill="#000" font-size="16" font-family="Poppins-Medium, Poppins" font-weight="500" opacity="0.5"><tspan x="0" y="0">hex</tspan></text><text id="_54_59_0_63-3" data-name="54, 59, 0, 63" transform="translate(580 244)" fill="#000" font-size="16" font-family="Poppins-Bold, Poppins" font-weight="700"><tspan x="0" y="0">252 , 163 , 17</tspan></text><text id="cmyk-3" data-name="cmyk" transform="translate(580 287)" fill="#000" font-size="16" font-family="Poppins-Medium, Poppins" font-weight="500" opacity="0.5"><tspan x="0" y="0">rgb</tspan></text><text id="_54_59_0_63-7" data-name="54, 59, 0, 63" transform="translate(580 310)" fill="#000" font-size="16" font-family="Poppins-Bold, Poppins" font-weight="700"><tspan x="0" y="0">0 , 35 , 93 , 1 </tspan></text><text id="rgb-3" data-name="rgb" transform="translate(580 221)" fill="#000" font-size="16" font-family="Poppins-Medium, Poppins" font-weight="500" opacity="0.5"><tspan x="0" y="0">cmyk</tspan></text><rect id="123" data-name="123" width="490" height="446" fill="#000000" transform="translate(540 , 496)" clip-path="url(#round-corner-bottom)"/><text id="Marigold_Yellow-3" data-name="Marigold Yellow" transform="translate(580 557)" fill="#fff" font-size="20" font-family="Poppins-Bold, Poppins" font-weight="700"><tspan x="0" y="0">Black</tspan></text><text id="_1F2F98-3" data-name="#1F2F98" transform="translate(580 624)" fill="#fff" font-size="16" font-family="Poppins-Bold, Poppins" font-weight="700"><tspan x="0" y="0">#000000</tspan></text><text id="hex-3" data-name="hex" transform="translate(580 601)" fill="#fff" font-size="16" font-family="Poppins-Medium, Poppins" font-weight="500" opacity="0.5"><tspan x="0" y="0">hex</tspan></text><text id="_54_59_0_63-3" data-name="54, 59, 0, 63" transform="translate(580 690)" fill="#fff" font-size="16" font-family="Poppins-Bold, Poppins" font-weight="700"><tspan x="0" y="0">0 , 0 , 0</tspan></text><text id="cmyk-3" data-name="cmyk" transform="translate(580 733)" fill="#fff" font-size="16" font-family="Poppins-Medium, Poppins" font-weight="500" opacity="0.5"><tspan x="0" y="0">rgb</tspan></text><text id="_54_59_0_63-7" data-name="54, 59, 0, 63" transform="translate(580 756)" fill="#fff" font-size="16" font-family="Poppins-Bold, Poppins" font-weight="700"><tspan x="0" y="0">0 , 0 , 0 , 100 </tspan></text><text id="rgb-3" data-name="rgb" transform="translate(580 667)" fill="#fff" font-size="16" font-family="Poppins-Medium, Poppins" font-weight="500" opacity="0.5"><tspan x="0" y="0">cmyk</tspan></text><path id="dopelyLogo" data-name="Path 61479" d="M-57.255-16.734h-8.217V3.381h8.217A9.839,9.839,0,0,0-47.276-6.677,9.839,9.839,0,0,0-57.255-16.734Zm0,15.689h-3.522V-12.309h3.522c3.228,0,5.459,2.184,5.459,5.632S-54.026-1.044-57.255-1.044Zm22.422,4.827A10.483,10.483,0,0,0-24.15-6.677a10.483,10.483,0,0,0-10.683-10.46A10.483,10.483,0,0,0-45.515-6.677,10.483,10.483,0,0,0-34.833,3.783Zm0-4.483A5.782,5.782,0,0,1-40.82-6.677a5.782,5.782,0,0,1,5.987-5.977,5.782,5.782,0,0,1,5.987,5.977A5.782,5.782,0,0,1-34.833-.7Zm21.1-16.034h-7.777V3.381h4.7V-2.941h3.082a6.99,6.99,0,0,0,7.19-6.9A6.99,6.99,0,0,0-13.732-16.734Zm0,9.483h-3.082v-5.172h3.082a2.482,2.482,0,0,1,2.495,2.586A2.482,2.482,0,0,1-13.732-7.251ZM.5-1.044V-4.608H7.839V-8.975H.5v-3.333H8.573v-4.425H-4.193V3.381H8.72V-1.044Zm15.554,0V-16.734h-4.7V3.381H23.394V-1.044ZM39.535-16.734H34.194l-3.9,7.758-3.9-7.758H21.046l6.9,12.385v7.73h4.7v-7.73Zm.587,20.517a2.777,2.777,0,0,0,2.788-2.73,2.789,2.789,0,0,0-5.576,0A2.777,2.777,0,0,0,40.122,3.783ZM56.85-16.734H41.589v4.425h5.283V3.381h4.7V-12.309H56.85ZM67.533,3.783A10.483,10.483,0,0,0,78.216-6.677a10.483,10.483,0,0,0-10.683-10.46A10.483,10.483,0,0,0,56.85-6.677,10.483,10.483,0,0,0,67.533,3.783Zm0-4.483a5.782,5.782,0,0,1-5.987-5.977,5.782,5.782,0,0,1,5.987-5.977A5.782,5.782,0,0,1,73.52-6.677,5.782,5.782,0,0,1,67.533-.7Zm21.1-16.034H80.857V3.381h4.7V-2.941h3.082a6.99,6.99,0,0,0,7.19-6.9A6.99,6.99,0,0,0,88.634-16.734Zm0,9.483H85.553v-5.172h3.082a2.482,2.482,0,0,1,2.495,2.586A2.482,2.482,0,0,1,88.634-7.251Z" transform="translate(154.98 1025)" style="display: none;"/><text id="made_with" data-name="made with" transform="translate(90 995)" stroke="rgba(0,0,0,0)" stroke-width="1" font-size="12" font-family="Poppins-Bold, Poppins" font-weight="700" opacity="0.3" style="display: none;"><tspan x="0" y="0">made with</tspan></text><text id="dopely.top" data-name="https://colors.dopely.top/a4s301" transform="translate(850 1025)" font-size="14" font-family="Poppins-Bold, Poppins" font-weight="700" style="display: none;"><tspan x="-236.558" y="0">https://colors.dopely.top/linear/undefined-50-undefined-100/130</tspan></text><text id="_68_2" data-name="68 °" transform="translate(460 896)" fill="#fff" font-size="16" font-family="Poppins-Bold, Poppins" font-weight="700"><tspan x="-31.36" y="0">130 °</tspan></text></svg>